<?xml version="1.0" encoding="UTF-8" standalone="no"?>
<!-- Created with Inkscape (http://www.inkscape.org/) -->

<svg
   width="297mm"
   height="210mm"
   viewBox="0 0 297 210"
   version="1.1"
   id="svg5"
   inkscape:version="1.1 (c68e22c387, 2021-05-23)"
   sodipodi:docname="SCONIN_LOGO.svg"
   xmlns:inkscape="http://www.inkscape.org/namespaces/inkscape"
   xmlns:sodipodi="http://sodipodi.sourceforge.net/DTD/sodipodi-0.dtd"
   xmlns="http://www.w3.org/2000/svg"
   xmlns:svg="http://www.w3.org/2000/svg">
  <sodipodi:namedview
     id="namedview7"
     pagecolor="#ffffff"
     bordercolor="#999999"
     borderopacity="1"
     inkscape:pageshadow="0"
     inkscape:pageopacity="0"
     inkscape:pagecheckerboard="0"
     inkscape:document-units="mm"
     showgrid="false"
     inkscape:lockguides="true"
     inkscape:zoom="0.35355339"
     inkscape:cx="414.36457"
     inkscape:cy="267.28636"
     inkscape:window-width="1440"
     inkscape:window-height="837"
     inkscape:window-x="-8"
     inkscape:window-y="-8"
     inkscape:window-maximized="1"
     inkscape:current-layer="layer11" />
  <defs
     id="defs2" />
  <g
     inkscape:groupmode="layer"
     id="layer11"
     inkscape:label="SCONIN LOGO"
     style="display:inline"
     sodipodi:insensitive="true">
    <rect
       style="fill:#7a00c6;fill-opacity:1;stroke:none;stroke-width:0.499999"
       id="rect10242"
       width="248.28654"
       height="69.830582"
       x="20.260284"
       y="56.70417"
       transform="rotate(-4)" />
    <rect
       style="fill:#000000;fill-opacity:1;stroke:none;stroke-width:0.288633"
       id="rect9497"
       width="248.28654"
       height="69.830582"
       x="26.299578"
       y="46.407917" />
    <path
       id="rect1056-1"
       style="display:inline;fill:#ffffff;stroke-width:0.246632"
       d="m 53.455796,61.925823 a 11.638427,11.638428 0 0 0 -11.63831,11.638311 11.638427,11.638428 0 0 0 11.63831,11.63861 v -7.75907 a 3.8794758,3.8794761 0 0 1 -3.879238,-3.87954 3.8794758,3.8794761 0 0 1 3.879238,-3.87924 z m 3.06e-4,0 v 7.758771 h 19.397383 v -7.758771 z m 7.758767,15.517551 v 3e-4 h -7.758775 v 7.75878 h 7.758775 a 3.8794758,3.8794761 0 0 1 3.879238,3.87953 3.8794758,3.8794761 0 0 1 -3.879238,3.87924 v 3e-4 H 41.817486 v 7.759066 h 19.397383 v -3.1e-4 A 11.638427,11.638428 0 0 0 72.85318,89.081984 11.638427,11.638428 0 0 0 61.214869,77.443374 Z" />
    <rect
       style="display:inline;fill:#ffffff;stroke-width:0.348792"
       id="rect1056-1-5-3"
       width="7.7589555"
       height="38.794769"
       x="208.63492"
       y="61.925831" />
    <path
       id="rect1056-1-5-3-9"
       style="display:inline;fill:#ffffff;stroke-width:0.348792"
       d="m 165.96056,61.925823 v 38.794767 h 7.75907 V 75.504054 l 15.51785,25.216536 h 7.75907 V 61.925823 h -7.75907 V 87.142364 L 173.71963,61.925823 Z" />
    <path
       id="rect1056-1-5-3-9-9"
       style="display:inline;fill:#ffffff;stroke-width:0.348792"
       d="m 228.03221,61.925823 v 38.794767 h 7.75907 V 75.504054 l 15.51785,25.216536 h 7.75908 V 61.925823 h -7.75908 V 87.142364 L 235.79128,61.925823 Z" />
    <path
       id="path3567-2"
       style="display:inline;fill:#ffffff;fill-opacity:1;stroke:none;stroke-width:0.288633"
       d="m 138.80438,61.925823 a 19.397381,19.397385 0 0 0 -19.39737,19.397381 19.397381,19.397385 0 0 0 19.39737,19.397376 19.397381,19.397385 0 0 0 19.39739,-19.397376 19.397381,19.397385 0 0 0 -19.39739,-19.397381 z m 0,7.759071 a 11.638426,11.638431 0 0 1 11.63831,11.63831 11.638426,11.638431 0 0 1 -11.63831,11.63831 11.638426,11.638431 0 0 1 -11.63831,-11.63831 11.638426,11.638431 0 0 1 11.63831,-11.63831 z" />
    <path
       id="ellipse6538"
       style="display:inline;fill:#ffffff;fill-opacity:1;stroke:none;stroke-width:0.288633"
       d="M 100.00964,61.925823 A 19.39738,19.397385 0 0 0 80.612253,81.323204 19.39738,19.397385 0 0 0 100.00964,100.72059 h 11.63831 V 92.961514 H 100.00964 A 11.638426,11.638431 0 0 1 88.371325,81.323204 11.638426,11.638431 0 0 1 100.00964,69.684894 h 11.63831 v -7.759071 z" />
  </g>
</svg>
