<?xml version="1.0" encoding="UTF-8" standalone="no"?>
<!-- Created with Inkscape (http://www.inkscape.org/) -->

<svg
   width="221.13026mm"
   height="38.794865mm"
   viewBox="0 0 221.13026 38.794865"
   version="1.1"
   id="svg5"
   xmlns="http://www.w3.org/2000/svg"
   xmlns:svg="http://www.w3.org/2000/svg">
  <defs
     id="defs2" />
  <g
     id="layer11"
     style="display:inline;opacity:1"
     transform="translate(-37.724921,-81.803896)">
    <g
       id="g12345"
       style="display:inline">
      <path
         id="path3298"
         style="fill:#ffffff;stroke-width:0.246632"
         d="m 49.363231,81.803994 a 11.638427,11.638428 0 0 0 -11.63831,11.638311 11.638427,11.638428 0 0 0 11.63831,11.638615 v -7.759075 a 3.8794758,3.8794761 0 0 1 -3.879238,-3.87954 3.8794758,3.8794761 0 0 1 3.879238,-3.87924 z m 3.06e-4,0 v 7.758771 H 68.76092 v -7.758771 z m 7.758767,15.517551 v 3e-4 h -7.758775 v 7.758785 h 7.758775 a 3.8794758,3.8794761 0 0 1 3.879238,3.87953 3.8794758,3.8794761 0 0 1 -3.879238,3.87924 v 3e-4 H 37.724921 v 7.75906 h 19.397383 v -3.1e-4 A 11.638427,11.638428 0 0 0 68.760615,108.96016 11.638427,11.638428 0 0 0 57.122304,97.321545 Z" />
      <rect
         style="fill:#ffffff;stroke-width:0.348792"
         id="rect3300"
         width="7.7589555"
         height="38.794769"
         x="206.4821"
         y="81.803993" />
      <path
         id="path3302"
         style="fill:#ffffff;stroke-width:0.348792"
         d="m 161.868,81.803994 v 38.794766 h 7.75907 V 95.382225 l 15.51785,25.216535 h 7.75907 V 81.803994 h -7.75907 V 107.02054 L 169.62707,81.803994 Z" />
      <path
         id="path3304"
         style="display:inline;fill:#ffffff;stroke-width:0.348792"
         d="m 227.81918,81.803896 v 38.794764 h 7.75907 V 95.382127 l 15.51785,25.216533 h 7.75908 V 81.803896 H 251.0961 V 107.02044 L 235.57825,81.803896 Z" />
      <path
         id="path3306"
         style="display:inline;fill:#ffffff;fill-opacity:1;stroke:none;stroke-width:0.288633"
         d="m 134.71182,81.803994 a 19.397381,19.397385 0 0 0 -19.39737,19.397386 19.397381,19.397385 0 0 0 19.39737,19.39737 19.397381,19.397385 0 0 0 19.39739,-19.39737 19.397381,19.397385 0 0 0 -19.39739,-19.397386 z m 0,7.759071 a 11.638426,11.638431 0 0 1 11.63831,11.638315 11.638426,11.638431 0 0 1 -11.63831,11.63831 11.638426,11.638431 0 0 1 -11.63831,-11.63831 11.638426,11.638431 0 0 1 11.63831,-11.638315 z" />
      <path
         id="path3308"
         style="display:inline;fill:#ffffff;fill-opacity:1;stroke:none;stroke-width:0.288633"
         d="m 95.917075,81.803994 a 19.39738,19.397385 0 0 0 -19.397387,19.397386 19.39738,19.397385 0 0 0 19.397387,19.39738 h 11.638315 v -7.75907 H 95.917075 A 11.638426,11.638431 0 0 1 84.27876,101.20138 11.638426,11.638431 0 0 1 95.917075,89.563065 h 11.638315 v -7.759071 z" />
    </g>
  </g>
</svg>
